<mxfile host="app.diagrams.net" agent="Mozilla/5.0 (Windows NT 10.0; Win64; x64) AppleWebKit/537.36 (KHTML, like Gecko) Chrome/136.0.0.0 Safari/537.36" version="27.0.9">
  <diagram name="第 1 页" id="RcCyCAIyFZLAul1MPgGA">
    <mxGraphModel dx="1613" dy="425" grid="1" gridSize="10" guides="1" tooltips="1" connect="1" arrows="1" fold="1" page="1" pageScale="1" pageWidth="827" pageHeight="1169" math="0" shadow="0">
      <root>
        <mxCell id="0" />
        <mxCell id="1" parent="0" />
        <mxCell id="xhFpgODZQTWFZK_gNYSW-1" value="订单服务" style="shape=umlLifeline;perimeter=lifelinePerimeter;whiteSpace=wrap;html=1;container=1;dropTarget=0;collapsible=0;recursiveResize=0;outlineConnect=0;portConstraint=eastwest;newEdgeStyle={&quot;curved&quot;:0,&quot;rounded&quot;:0};" parent="1" vertex="1">
          <mxGeometry x="280" y="360" width="80" height="600" as="geometry" />
        </mxCell>
        <mxCell id="xhFpgODZQTWFZK_gNYSW-10" value="" style="html=1;points=[[0,0,0,0,5],[0,1,0,0,-5],[1,0,0,0,5],[1,1,0,0,-5]];perimeter=orthogonalPerimeter;outlineConnect=0;targetShapes=umlLifeline;portConstraint=eastwest;newEdgeStyle={&quot;curved&quot;:0,&quot;rounded&quot;:0};" parent="xhFpgODZQTWFZK_gNYSW-1" vertex="1">
          <mxGeometry x="35" y="180" width="10" height="40" as="geometry" />
        </mxCell>
        <mxCell id="xhFpgODZQTWFZK_gNYSW-11" value="创建一个订单" style="html=1;align=left;spacingLeft=2;endArrow=block;rounded=0;edgeStyle=orthogonalEdgeStyle;curved=0;rounded=0;" parent="xhFpgODZQTWFZK_gNYSW-1" target="xhFpgODZQTWFZK_gNYSW-10" edge="1">
          <mxGeometry relative="1" as="geometry">
            <mxPoint x="35" y="160" as="sourcePoint" />
            <Array as="points">
              <mxPoint x="65" y="190" />
            </Array>
          </mxGeometry>
        </mxCell>
        <mxCell id="xhFpgODZQTWFZK_gNYSW-2" value="定价服务" style="shape=umlLifeline;perimeter=lifelinePerimeter;whiteSpace=wrap;html=1;container=1;dropTarget=0;collapsible=0;recursiveResize=0;outlineConnect=0;portConstraint=eastwest;newEdgeStyle={&quot;curved&quot;:0,&quot;rounded&quot;:0};" parent="1" vertex="1">
          <mxGeometry x="40" y="360" width="80" height="600" as="geometry" />
        </mxCell>
        <mxCell id="xhFpgODZQTWFZK_gNYSW-3" value="库存服务" style="shape=umlLifeline;perimeter=lifelinePerimeter;whiteSpace=wrap;html=1;container=1;dropTarget=0;collapsible=0;recursiveResize=0;outlineConnect=0;portConstraint=eastwest;newEdgeStyle={&quot;curved&quot;:0,&quot;rounded&quot;:0};" parent="1" vertex="1">
          <mxGeometry x="520" y="360" width="80" height="600" as="geometry" />
        </mxCell>
        <mxCell id="xhFpgODZQTWFZK_gNYSW-4" value="结算服务" style="shape=umlLifeline;perimeter=lifelinePerimeter;whiteSpace=wrap;html=1;container=1;dropTarget=0;collapsible=0;recursiveResize=0;outlineConnect=0;portConstraint=eastwest;newEdgeStyle={&quot;curved&quot;:0,&quot;rounded&quot;:0};" parent="1" vertex="1">
          <mxGeometry x="760" y="360" width="100" height="300" as="geometry" />
        </mxCell>
        <mxCell id="xhFpgODZQTWFZK_gNYSW-6" value="" style="shape=umlLifeline;perimeter=lifelinePerimeter;whiteSpace=wrap;html=1;container=1;dropTarget=0;collapsible=0;recursiveResize=0;outlineConnect=0;portConstraint=eastwest;newEdgeStyle={&quot;curved&quot;:0,&quot;rounded&quot;:0};participant=umlActor;" parent="1" vertex="1">
          <mxGeometry x="-330" y="360" width="20" height="610" as="geometry" />
        </mxCell>
        <mxCell id="xhFpgODZQTWFZK_gNYSW-7" value="调定价服务" style="html=1;verticalAlign=bottom;endArrow=block;curved=0;rounded=0;" parent="1" edge="1" source="k7djGo3xLF5DHdySYhDB-1">
          <mxGeometry width="80" relative="1" as="geometry">
            <mxPoint x="-110" y="449" as="sourcePoint" />
            <mxPoint x="79.5" y="449" as="targetPoint" />
          </mxGeometry>
        </mxCell>
        <mxCell id="xhFpgODZQTWFZK_gNYSW-8" value="根据页面上勾选的条件报价" style="html=1;verticalAlign=bottom;endArrow=open;dashed=1;endSize=8;curved=0;rounded=0;" parent="1" target="k7djGo3xLF5DHdySYhDB-4" edge="1">
          <mxGeometry relative="1" as="geometry">
            <mxPoint x="80" y="473" as="sourcePoint" />
            <mxPoint x="-110" y="473" as="targetPoint" />
          </mxGeometry>
        </mxCell>
        <mxCell id="xhFpgODZQTWFZK_gNYSW-12" value="dispatch" style="html=1;verticalAlign=bottom;endArrow=block;curved=0;rounded=0;" parent="1" target="xhFpgODZQTWFZK_gNYSW-3" edge="1">
          <mxGeometry width="80" relative="1" as="geometry">
            <mxPoint x="320" y="610" as="sourcePoint" />
            <mxPoint x="400" y="610" as="targetPoint" />
          </mxGeometry>
        </mxCell>
        <mxCell id="k7djGo3xLF5DHdySYhDB-1" value="网关" style="shape=umlLifeline;perimeter=lifelinePerimeter;whiteSpace=wrap;html=1;container=1;dropTarget=0;collapsible=0;recursiveResize=0;outlineConnect=0;portConstraint=eastwest;newEdgeStyle={&quot;curved&quot;:0,&quot;rounded&quot;:0};" vertex="1" parent="1">
          <mxGeometry x="-200" y="360" width="80" height="600" as="geometry" />
        </mxCell>
        <mxCell id="k7djGo3xLF5DHdySYhDB-4" value="" style="html=1;points=[[0,0,0,0,5],[0,1,0,0,-5],[1,0,0,0,5],[1,1,0,0,-5]];perimeter=orthogonalPerimeter;outlineConnect=0;targetShapes=umlLifeline;portConstraint=eastwest;newEdgeStyle={&quot;curved&quot;:0,&quot;rounded&quot;:0};" vertex="1" parent="k7djGo3xLF5DHdySYhDB-1">
          <mxGeometry x="35" y="70" width="10" height="60" as="geometry" />
        </mxCell>
        <mxCell id="k7djGo3xLF5DHdySYhDB-7" value="" style="html=1;points=[[0,0,0,0,5],[0,1,0,0,-5],[1,0,0,0,5],[1,1,0,0,-5]];perimeter=orthogonalPerimeter;outlineConnect=0;targetShapes=umlLifeline;portConstraint=eastwest;newEdgeStyle={&quot;curved&quot;:0,&quot;rounded&quot;:0};" vertex="1" parent="k7djGo3xLF5DHdySYhDB-1">
          <mxGeometry x="35" y="185" width="10" height="80" as="geometry" />
        </mxCell>
        <mxCell id="k7djGo3xLF5DHdySYhDB-5" value="询价" style="html=1;verticalAlign=bottom;endArrow=block;curved=0;rounded=0;entryX=0;entryY=0;entryDx=0;entryDy=5;" edge="1" target="k7djGo3xLF5DHdySYhDB-4" parent="1" source="xhFpgODZQTWFZK_gNYSW-6">
          <mxGeometry relative="1" as="geometry">
            <mxPoint x="-235" y="435" as="sourcePoint" />
          </mxGeometry>
        </mxCell>
        <mxCell id="k7djGo3xLF5DHdySYhDB-6" value="返回价格" style="html=1;verticalAlign=bottom;endArrow=open;dashed=1;endSize=8;curved=0;rounded=0;exitX=0;exitY=1;exitDx=0;exitDy=-5;" edge="1" source="k7djGo3xLF5DHdySYhDB-4" parent="1" target="xhFpgODZQTWFZK_gNYSW-6">
          <mxGeometry relative="1" as="geometry">
            <mxPoint x="-235" y="505" as="targetPoint" />
          </mxGeometry>
        </mxCell>
        <mxCell id="k7djGo3xLF5DHdySYhDB-8" value="点击提交" style="html=1;verticalAlign=bottom;endArrow=block;curved=0;rounded=0;entryX=0;entryY=0;entryDx=0;entryDy=5;" edge="1" target="k7djGo3xLF5DHdySYhDB-7" parent="1" source="xhFpgODZQTWFZK_gNYSW-6">
          <mxGeometry relative="1" as="geometry">
            <mxPoint x="-235" y="550" as="sourcePoint" />
          </mxGeometry>
        </mxCell>
        <mxCell id="k7djGo3xLF5DHdySYhDB-9" value="return" style="html=1;verticalAlign=bottom;endArrow=open;dashed=1;endSize=8;curved=0;rounded=0;exitX=0;exitY=1;exitDx=0;exitDy=-5;" edge="1" source="k7djGo3xLF5DHdySYhDB-7" parent="1" target="xhFpgODZQTWFZK_gNYSW-6">
          <mxGeometry relative="1" as="geometry">
            <mxPoint x="-235" y="620" as="targetPoint" />
          </mxGeometry>
        </mxCell>
      </root>
    </mxGraphModel>
  </diagram>
</mxfile>
